<svg xmlns="http://www.w3.org/2000/svg" viewBox="0 0 180 180" fill="none"><g transform="translate(-701 -85)">
<path d="M880.875 130.695L861.835 149.668C851.573 159.635 837.549 165.803 822.07 165.803C816.944 165.803 811.968 165.123 807.233 163.854C798.004 161.374 789.708 156.656 782.967 150.298C782.255 149.518 781.492 148.769 780.72 148.059C773.277 141.171 763.315 136.973 752.361 136.973C740.814 136.973 730.372 141.641 722.818 149.189L712.064 138.472C722.366 128.226 736.581 121.888 752.28 121.888C757.417 121.888 762.392 122.567 767.127 123.847C776.557 126.366 785.013 131.255 791.835 137.812C791.865 137.842 791.895 137.872 791.925 137.902C792.326 138.322 792.738 138.732 793.159 139.132C793.189 139.172 793.229 139.202 793.259 139.232C800.753 146.349 810.905 150.728 822.08 150.728C834.339 150.728 845.363 145.46 853.007 137.093C853.037 137.063 853.058 137.033 853.088 137.003L870.161 119.988L876.361 126.166L880.895 130.685L880.875 130.695Z" fill="#702572"></path>
<path d="M822.06 133.204C808.728 133.204 797.874 122.388 797.874 109.102C797.874 95.8164 808.728 85 822.06 85C835.392 85 846.246 95.8164 846.246 109.102C846.246 122.388 835.392 133.204 822.06 133.204ZM822.06 100.125C817.094 100.125 813.052 104.154 813.052 109.102C813.052 114.05 817.094 118.079 822.06 118.079C827.026 118.079 831.068 114.05 831.068 109.102C831.068 104.154 827.026 100.125 822.06 100.125Z" fill="#702572"></path>
<path d="M772.735 204.66C772.665 204.74 772.604 204.8 772.534 204.87C772.464 204.94 772.404 205 772.324 205.07L757.497 219.845L742.771 234.52L712.184 265L701.471 254.323L726.63 229.252L743.984 211.958L761.811 194.194C767.037 188.985 767.037 180.538 761.811 175.32C756.574 170.112 748.097 170.112 742.871 175.32L721.785 196.333L711.251 185.836L711.061 185.646L711.191 185.516L732.137 164.643C743.292 153.527 761.369 153.527 772.524 164.643C783.609 175.69 783.679 193.554 772.725 204.68L772.735 204.66Z" fill="#702572"></path>
</g></svg>